M48
;DRILL file {KiCad (5.0.0)} date 09/14/18 20:03:06
;FORMAT={-:-/ absolute / inch / decimal}
FMAT,2
INCH,TZ
T1C0.0157
T2C0.0315
T3C0.0394
T4C0.0591
%
G90
G05
M72
T1
X6.4Y-3.35
X6.45Y-3.6
X6.55Y-3.
X6.65Y-3.
X6.7Y-3.25
T2
X6.Y-3.85
X6.4Y-3.85
X5.8Y-3.4
X5.8Y-3.8
X5.75Y-2.95
X5.8681Y-2.95
T3
X6.65Y-3.8
X6.75Y-3.8
X6.85Y-3.8
X6.9Y-2.95
X6.9Y-3.05
X6.9Y-3.15
X6.9Y-3.25
X6.9Y-3.35
X6.9Y-3.45
T4
X5.75Y-3.25
X6.5567Y-3.25
T0
M30
