G04 #@! TF.GenerationSoftware,KiCad,Pcbnew,(5.0.0)*
G04 #@! TF.CreationDate,2018-09-14T19:56:33-05:00*
G04 #@! TF.ProjectId,light sensitive demo,6C696768742073656E73697469766520,rev?*
G04 #@! TF.SameCoordinates,Original*
G04 #@! TF.FileFunction,Legend,Bot*
G04 #@! TF.FilePolarity,Positive*
%FSLAX46Y46*%
G04 Gerber Fmt 4.6, Leading zero omitted, Abs format (unit mm)*
G04 Created by KiCad (PCBNEW (5.0.0)) date 09/14/18 19:56:37*
%MOMM*%
%LPD*%
G01*
G04 APERTURE LIST*
%ADD10C,0.300000*%
%ADD11C,0.120000*%
%ADD12C,0.150000*%
G04 APERTURE END LIST*
D10*
X154731483Y-94229006D02*
X153970841Y-93696399D01*
X154052659Y-94451274D01*
X153877127Y-94328365D01*
X153719135Y-94304937D01*
X153619655Y-94322478D01*
X153479204Y-94398530D01*
X153274356Y-94691084D01*
X153250927Y-94849075D01*
X153268468Y-94948556D01*
X153344520Y-95089006D01*
X153695585Y-95334825D01*
X153853577Y-95358253D01*
X153953057Y-95340712D01*
X152683602Y-92795065D02*
X151413662Y-93737005D01*
X151864450Y-92221488D01*
X150418977Y-93040519D02*
X150576969Y-93063948D01*
X150676449Y-93046407D01*
X150816900Y-92970355D01*
X151062718Y-92619289D01*
X151086147Y-92461298D01*
X151068606Y-92361817D01*
X150992554Y-92221367D01*
X150817021Y-92098458D01*
X150659030Y-92075029D01*
X150559549Y-92092570D01*
X150419099Y-92168622D01*
X150173280Y-92519687D01*
X150149852Y-92677679D01*
X150167393Y-92777159D01*
X150243445Y-92917610D01*
X150418977Y-93040519D01*
X149307271Y-92262094D02*
X149465262Y-92285523D01*
X149605713Y-92209471D01*
X150343168Y-91156275D01*
X149588293Y-91238093D02*
X149120206Y-90910335D01*
X149699549Y-90705608D02*
X148962093Y-91758803D01*
X148821643Y-91834855D01*
X148663651Y-91811427D01*
X148546630Y-91729487D01*
X148236534Y-91425158D02*
X148078543Y-91401729D01*
X147844499Y-91237850D01*
X147768447Y-91097400D01*
X147791876Y-90939408D01*
X147832846Y-90880898D01*
X147973296Y-90804846D01*
X148131288Y-90828274D01*
X148306820Y-90951183D01*
X148464812Y-90974612D01*
X148605262Y-90898560D01*
X148646232Y-90840049D01*
X148669660Y-90682058D01*
X148593608Y-90541607D01*
X148418076Y-90418698D01*
X148260084Y-90395270D01*
D11*
G04 #@! TO.C,BT1*
X143850000Y-79550000D02*
X149550000Y-79550000D01*
X143850000Y-79550000D02*
X143850000Y-85550000D01*
X143850000Y-85550000D02*
X149550000Y-85550000D01*
X150301754Y-86076384D02*
G75*
G03X149550000Y-85550000I-751754J-273616D01*
G01*
X172745671Y-82504719D02*
G75*
G02X150300000Y-86050000I-11495671J-45281D01*
G01*
X150301754Y-79023616D02*
G75*
G02X149550000Y-79550000I-751754J273616D01*
G01*
X172745671Y-82595281D02*
G75*
G03X150300000Y-79050000I-11495671J45281D01*
G01*
D12*
X173505714Y-91368571D02*
X173362857Y-91416190D01*
X173315238Y-91463809D01*
X173267619Y-91559047D01*
X173267619Y-91701904D01*
X173315238Y-91797142D01*
X173362857Y-91844761D01*
X173458095Y-91892380D01*
X173839047Y-91892380D01*
X173839047Y-90892380D01*
X173505714Y-90892380D01*
X173410476Y-90940000D01*
X173362857Y-90987619D01*
X173315238Y-91082857D01*
X173315238Y-91178095D01*
X173362857Y-91273333D01*
X173410476Y-91320952D01*
X173505714Y-91368571D01*
X173839047Y-91368571D01*
X172981904Y-90892380D02*
X172410476Y-90892380D01*
X172696190Y-91892380D02*
X172696190Y-90892380D01*
X171553333Y-91892380D02*
X172124761Y-91892380D01*
X171839047Y-91892380D02*
X171839047Y-90892380D01*
X171934285Y-91035238D01*
X172029523Y-91130476D01*
X172124761Y-91178095D01*
X149371428Y-82657142D02*
X148228571Y-82657142D01*
X148800000Y-83228571D02*
X148800000Y-82085714D01*
G04 #@! TD*
M02*
