G04 #@! TF.GenerationSoftware,KiCad,Pcbnew,(5.0.0)*
G04 #@! TF.CreationDate,2018-09-14T19:56:37-05:00*
G04 #@! TF.ProjectId,light sensitive demo,6C696768742073656E73697469766520,rev?*
G04 #@! TF.SameCoordinates,Original*
G04 #@! TF.FileFunction,Soldermask,Top*
G04 #@! TF.FilePolarity,Negative*
%FSLAX46Y46*%
G04 Gerber Fmt 4.6, Leading zero omitted, Abs format (unit mm)*
G04 Created by KiCad (PCBNEW (5.0.0)) date 09/14/18 19:56:37*
%MOMM*%
%LPD*%
G01*
G04 APERTURE LIST*
%ADD10C,0.100000*%
%ADD11C,1.650000*%
%ADD12C,1.275000*%
%ADD13R,1.460000X1.050000*%
%ADD14R,3.400000X3.400000*%
%ADD15C,3.400000*%
%ADD16R,2.100000X2.100000*%
%ADD17O,2.100000X2.100000*%
%ADD18R,1.400000X1.900000*%
%ADD19C,2.000000*%
%ADD20O,2.000000X2.000000*%
G04 APERTURE END LIST*
D10*
G04 #@! TO.C,C1*
G36*
X167147346Y-85406589D02*
X167179380Y-85411341D01*
X167210794Y-85419210D01*
X167241286Y-85430120D01*
X167270561Y-85443966D01*
X167298338Y-85460615D01*
X167324350Y-85479907D01*
X167348345Y-85501655D01*
X167370093Y-85525650D01*
X167389385Y-85551662D01*
X167406034Y-85579439D01*
X167419880Y-85608714D01*
X167430790Y-85639206D01*
X167438659Y-85670620D01*
X167443411Y-85702654D01*
X167445000Y-85735000D01*
X167445000Y-86725000D01*
X167443411Y-86757346D01*
X167438659Y-86789380D01*
X167430790Y-86820794D01*
X167419880Y-86851286D01*
X167406034Y-86880561D01*
X167389385Y-86908338D01*
X167370093Y-86934350D01*
X167348345Y-86958345D01*
X167324350Y-86980093D01*
X167298338Y-86999385D01*
X167270561Y-87016034D01*
X167241286Y-87029880D01*
X167210794Y-87040790D01*
X167179380Y-87048659D01*
X167147346Y-87053411D01*
X167115000Y-87055000D01*
X165625000Y-87055000D01*
X165592654Y-87053411D01*
X165560620Y-87048659D01*
X165529206Y-87040790D01*
X165498714Y-87029880D01*
X165469439Y-87016034D01*
X165441662Y-86999385D01*
X165415650Y-86980093D01*
X165391655Y-86958345D01*
X165369907Y-86934350D01*
X165350615Y-86908338D01*
X165333966Y-86880561D01*
X165320120Y-86851286D01*
X165309210Y-86820794D01*
X165301341Y-86789380D01*
X165296589Y-86757346D01*
X165295000Y-86725000D01*
X165295000Y-85735000D01*
X165296589Y-85702654D01*
X165301341Y-85670620D01*
X165309210Y-85639206D01*
X165320120Y-85608714D01*
X165333966Y-85579439D01*
X165350615Y-85551662D01*
X165369907Y-85525650D01*
X165391655Y-85501655D01*
X165415650Y-85479907D01*
X165441662Y-85460615D01*
X165469439Y-85443966D01*
X165498714Y-85430120D01*
X165529206Y-85419210D01*
X165560620Y-85411341D01*
X165592654Y-85406589D01*
X165625000Y-85405000D01*
X167115000Y-85405000D01*
X167147346Y-85406589D01*
X167147346Y-85406589D01*
G37*
D11*
X166370000Y-86230000D03*
D10*
G36*
X167147346Y-88206589D02*
X167179380Y-88211341D01*
X167210794Y-88219210D01*
X167241286Y-88230120D01*
X167270561Y-88243966D01*
X167298338Y-88260615D01*
X167324350Y-88279907D01*
X167348345Y-88301655D01*
X167370093Y-88325650D01*
X167389385Y-88351662D01*
X167406034Y-88379439D01*
X167419880Y-88408714D01*
X167430790Y-88439206D01*
X167438659Y-88470620D01*
X167443411Y-88502654D01*
X167445000Y-88535000D01*
X167445000Y-89525000D01*
X167443411Y-89557346D01*
X167438659Y-89589380D01*
X167430790Y-89620794D01*
X167419880Y-89651286D01*
X167406034Y-89680561D01*
X167389385Y-89708338D01*
X167370093Y-89734350D01*
X167348345Y-89758345D01*
X167324350Y-89780093D01*
X167298338Y-89799385D01*
X167270561Y-89816034D01*
X167241286Y-89829880D01*
X167210794Y-89840790D01*
X167179380Y-89848659D01*
X167147346Y-89853411D01*
X167115000Y-89855000D01*
X165625000Y-89855000D01*
X165592654Y-89853411D01*
X165560620Y-89848659D01*
X165529206Y-89840790D01*
X165498714Y-89829880D01*
X165469439Y-89816034D01*
X165441662Y-89799385D01*
X165415650Y-89780093D01*
X165391655Y-89758345D01*
X165369907Y-89734350D01*
X165350615Y-89708338D01*
X165333966Y-89680561D01*
X165320120Y-89651286D01*
X165309210Y-89620794D01*
X165301341Y-89589380D01*
X165296589Y-89557346D01*
X165295000Y-89525000D01*
X165295000Y-88535000D01*
X165296589Y-88502654D01*
X165301341Y-88470620D01*
X165309210Y-88439206D01*
X165320120Y-88408714D01*
X165333966Y-88379439D01*
X165350615Y-88351662D01*
X165369907Y-88325650D01*
X165391655Y-88301655D01*
X165415650Y-88279907D01*
X165441662Y-88260615D01*
X165469439Y-88243966D01*
X165498714Y-88230120D01*
X165529206Y-88219210D01*
X165560620Y-88211341D01*
X165592654Y-88206589D01*
X165625000Y-88205000D01*
X167115000Y-88205000D01*
X167147346Y-88206589D01*
X167147346Y-88206589D01*
G37*
D11*
X166370000Y-89030000D03*
G04 #@! TD*
D10*
G04 #@! TO.C,D1*
G36*
X169242493Y-72986535D02*
X169273435Y-72991125D01*
X169303778Y-72998725D01*
X169333230Y-73009263D01*
X169361508Y-73022638D01*
X169388338Y-73038719D01*
X169413463Y-73057353D01*
X169436640Y-73078360D01*
X169457647Y-73101537D01*
X169476281Y-73126662D01*
X169492362Y-73153492D01*
X169505737Y-73181770D01*
X169516275Y-73211222D01*
X169523875Y-73241565D01*
X169528465Y-73272507D01*
X169530000Y-73303750D01*
X169530000Y-74016250D01*
X169528465Y-74047493D01*
X169523875Y-74078435D01*
X169516275Y-74108778D01*
X169505737Y-74138230D01*
X169492362Y-74166508D01*
X169476281Y-74193338D01*
X169457647Y-74218463D01*
X169436640Y-74241640D01*
X169413463Y-74262647D01*
X169388338Y-74281281D01*
X169361508Y-74297362D01*
X169333230Y-74310737D01*
X169303778Y-74321275D01*
X169273435Y-74328875D01*
X169242493Y-74333465D01*
X169211250Y-74335000D01*
X168573750Y-74335000D01*
X168542507Y-74333465D01*
X168511565Y-74328875D01*
X168481222Y-74321275D01*
X168451770Y-74310737D01*
X168423492Y-74297362D01*
X168396662Y-74281281D01*
X168371537Y-74262647D01*
X168348360Y-74241640D01*
X168327353Y-74218463D01*
X168308719Y-74193338D01*
X168292638Y-74166508D01*
X168279263Y-74138230D01*
X168268725Y-74108778D01*
X168261125Y-74078435D01*
X168256535Y-74047493D01*
X168255000Y-74016250D01*
X168255000Y-73303750D01*
X168256535Y-73272507D01*
X168261125Y-73241565D01*
X168268725Y-73211222D01*
X168279263Y-73181770D01*
X168292638Y-73153492D01*
X168308719Y-73126662D01*
X168327353Y-73101537D01*
X168348360Y-73078360D01*
X168371537Y-73057353D01*
X168396662Y-73038719D01*
X168423492Y-73022638D01*
X168451770Y-73009263D01*
X168481222Y-72998725D01*
X168511565Y-72991125D01*
X168542507Y-72986535D01*
X168573750Y-72985000D01*
X169211250Y-72985000D01*
X169242493Y-72986535D01*
X169242493Y-72986535D01*
G37*
D12*
X168892500Y-73660000D03*
D10*
G36*
X170817493Y-72986535D02*
X170848435Y-72991125D01*
X170878778Y-72998725D01*
X170908230Y-73009263D01*
X170936508Y-73022638D01*
X170963338Y-73038719D01*
X170988463Y-73057353D01*
X171011640Y-73078360D01*
X171032647Y-73101537D01*
X171051281Y-73126662D01*
X171067362Y-73153492D01*
X171080737Y-73181770D01*
X171091275Y-73211222D01*
X171098875Y-73241565D01*
X171103465Y-73272507D01*
X171105000Y-73303750D01*
X171105000Y-74016250D01*
X171103465Y-74047493D01*
X171098875Y-74078435D01*
X171091275Y-74108778D01*
X171080737Y-74138230D01*
X171067362Y-74166508D01*
X171051281Y-74193338D01*
X171032647Y-74218463D01*
X171011640Y-74241640D01*
X170988463Y-74262647D01*
X170963338Y-74281281D01*
X170936508Y-74297362D01*
X170908230Y-74310737D01*
X170878778Y-74321275D01*
X170848435Y-74328875D01*
X170817493Y-74333465D01*
X170786250Y-74335000D01*
X170148750Y-74335000D01*
X170117507Y-74333465D01*
X170086565Y-74328875D01*
X170056222Y-74321275D01*
X170026770Y-74310737D01*
X169998492Y-74297362D01*
X169971662Y-74281281D01*
X169946537Y-74262647D01*
X169923360Y-74241640D01*
X169902353Y-74218463D01*
X169883719Y-74193338D01*
X169867638Y-74166508D01*
X169854263Y-74138230D01*
X169843725Y-74108778D01*
X169836125Y-74078435D01*
X169831535Y-74047493D01*
X169830000Y-74016250D01*
X169830000Y-73303750D01*
X169831535Y-73272507D01*
X169836125Y-73241565D01*
X169843725Y-73211222D01*
X169854263Y-73181770D01*
X169867638Y-73153492D01*
X169883719Y-73126662D01*
X169902353Y-73101537D01*
X169923360Y-73078360D01*
X169946537Y-73057353D01*
X169971662Y-73038719D01*
X169998492Y-73022638D01*
X170026770Y-73009263D01*
X170056222Y-72998725D01*
X170086565Y-72991125D01*
X170117507Y-72986535D01*
X170148750Y-72985000D01*
X170786250Y-72985000D01*
X170817493Y-72986535D01*
X170817493Y-72986535D01*
G37*
D12*
X170467500Y-73660000D03*
G04 #@! TD*
D13*
G04 #@! TO.C,U1*
X171280000Y-87310000D03*
X171280000Y-86360000D03*
X171280000Y-85410000D03*
X169080000Y-85410000D03*
X169080000Y-87310000D03*
X169080000Y-86360000D03*
G04 #@! TD*
D14*
G04 #@! TO.C,BT1*
X146050000Y-82550000D03*
D15*
X166540000Y-82550000D03*
G04 #@! TD*
D16*
G04 #@! TO.C,J1*
X175260000Y-87630000D03*
D17*
X175260000Y-85090000D03*
X175260000Y-82550000D03*
X175260000Y-80010000D03*
X175260000Y-77470000D03*
X175260000Y-74930000D03*
G04 #@! TD*
D18*
G04 #@! TO.C,JP1*
X159400000Y-74930000D03*
X158100000Y-74930000D03*
G04 #@! TD*
D19*
G04 #@! TO.C,R1*
X146050000Y-74930000D03*
X149050000Y-74930000D03*
G04 #@! TD*
D20*
G04 #@! TO.C,R2*
X147320000Y-96520000D03*
D19*
X147320000Y-86360000D03*
G04 #@! TD*
D20*
G04 #@! TO.C,R3*
X152400000Y-97790000D03*
D19*
X162560000Y-97790000D03*
G04 #@! TD*
D16*
G04 #@! TO.C,SW1*
X168910000Y-96520000D03*
D17*
X171450000Y-96520000D03*
X173990000Y-96520000D03*
G04 #@! TD*
M02*
